<?xml version="1.0" encoding="utf-8" ?>
<svg baseProfile="tiny" height="700" version="1.2" width="900" xmlns="http://www.w3.org/2000/svg" xmlns:ev="http://www.w3.org/2001/xml-events" xmlns:xlink="http://www.w3.org/1999/xlink"><defs><linearGradient id="paper-grad" x1="0%" x2="100%" y1="0%" y2="100%"><stop offset="0.0" stop-color="#1a1a1a" /><stop offset="1.0" stop-color="#1e1e1e" /></linearGradient></defs><rect fill="url(#paper-grad)" height="100%" rx="16" width="100%" x="0" y="0" /><rect fill="none" height="100%" rx="16" stroke="#2a2a2a" stroke-width="1.5" width="100%" x="0" y="0" /><g opacity="0.35"><circle cx="60.0" cy="39.2" fill="#ffd5de" r="7.2" /><circle cx="70.2714" cy="46.6626" fill="#ffd5de" r="7.2" /><circle cx="66.3481" cy="58.7374" fill="#ffd5de" r="7.2" /><circle cx="53.6519" cy="58.7374" fill="#ffd5de" r="7.2" /><circle cx="49.7286" cy="46.6626" fill="#ffd5de" r="7.2" /><circle cx="60" cy="50" fill="#ffb7c5" r="3.6" /></g><g opacity="0.35"><circle cx="130.0" cy="61.6" fill="#ffd5de" r="5.6" /><circle cx="137.9889" cy="67.4043" fill="#ffd5de" r="5.6" /><circle cx="134.9374" cy="76.7957" fill="#ffd5de" r="5.6" /><circle cx="125.0626" cy="76.7957" fill="#ffd5de" r="5.6" /><circle cx="122.0111" cy="67.4043" fill="#ffd5de" r="5.6" /><circle cx="130" cy="70" fill="#ffb7c5" r="2.8" /></g><g fill="#d4d7d7" opacity="0.2"><circle cx="800" cy="60" r="15.0" /><circle cx="788.0" cy="63.0" r="10.5" /><circle cx="812.0" cy="63.0" r="10.5" /><circle cx="803.0" cy="55.5" r="9.0" /></g><g fill="#d4d7d7" opacity="0.2"><circle cx="720" cy="100" r="11.0" /><circle cx="711.2" cy="102.2" r="7.7" /><circle cx="728.8" cy="102.2" r="7.7" /><circle cx="722.2" cy="96.7" r="6.6" /></g><polygon fill="#c4c7c7" opacity="0.4" points="50.0,626.0 53.703,634.9032 63.3148,635.6738 55.9917,641.9468 58.229,651.3262 50.0,646.3 41.771,651.3262 44.0083,641.9468 36.6852,635.6738 46.297,634.9032" /><polygon fill="#c4c7c7" opacity="0.4" points="820.0,604.0 824.2321,614.1751 835.2169,615.0557 826.8476,622.2249 829.4046,632.9443 820.0,627.2 810.5954,632.9443 813.1524,622.2249 804.7831,615.0557 815.7679,614.1751" /><g opacity="0.35"><circle cx="830.0" cy="490.4" fill="#ffd5de" r="6.4" /><circle cx="839.1301" cy="497.0334" fill="#ffd5de" r="6.4" /><circle cx="835.6427" cy="507.7666" fill="#ffd5de" r="6.4" /><circle cx="824.3573" cy="507.7666" fill="#ffd5de" r="6.4" /><circle cx="820.8699" cy="497.0334" fill="#ffd5de" r="6.4" /><circle cx="830" cy="500" fill="#ffb7c5" r="3.2" /></g><circle cx="450" cy="200" fill="#ffb3ac" opacity="0.12" r="74" stroke="none" stroke-width="0" /><circle cx="450" cy="200" fill="#201515" r="70" stroke="#ffb3ac" stroke-width="3" /><circle cx="450" cy="200" fill="#1e1e1e" r="62" stroke="#ffb3ac" stroke-opacity="0.5" stroke-width="1" /><text fill="#e5e2e1" font-family="'Noto Sans JP', 'Inter', sans-serif" font-size="25" font-weight="bold" text-anchor="middle" x="450" y="208.0">かきくけこ</text><text fill="#c6c5d4" font-family="Inter, sans-serif" font-size="12" text-anchor="middle" x="450" y="236">KA-row (かきくけこ)</text><text fill="#908f9d" font-family="Inter, sans-serif" font-size="9" text-anchor="middle" x="450" y="254">Hiragana: Fila KA (…</text><path d="M 450,200 Q 425.68925512662975,110.0 401.3785102532595,80" fill="none" opacity="0.5" stroke="#ffb3ac" stroke-linecap="round" stroke-width="2.5" /><path d="M 450,200 Q 425.68925512662975,110.0 401.3785102532595,80" fill="none" opacity="0.12" stroke="#ffb3ac" stroke-linecap="round" stroke-width="6" /><rect fill="#1e1e1e" height="68" rx="12" stroke="#ffb3ac" stroke-width="1.5" width="300" x="251.3785" y="49" /><circle cx="275.3785" cy="83" fill="#ffb3ac" r="14" /><text fill="white" font-family="Inter, sans-serif" font-size="12" font-weight="bold" text-anchor="middle" x="275.3785102532595" y="88">1</text><text fill="#e5e2e1" font-family="'Noto Sans JP', 'Inter', sans-serif" font-size="17" font-weight="bold" x="299.3785102532595" y="73">か</text><text fill="#c6c5d4" font-family="Inter, sans-serif" font-size="11" x="299.3785102532595" y="95">(ka)</text><text fill="#908f9d" font-family="'Noto Sans JP', Inter, sans-serif" font-size="12" x="319.3785102532595" y="71">= かさ</text><text fill="#908f9d" font-family="Inter, sans-serif" font-size="9" x="319.3785102532595" y="85">(kasa)</text><path d="M 450,200 Q 539.9902653561155,110.0 629.980530712231,80" fill="none" opacity="0.5" stroke="#ffb3ac" stroke-linecap="round" stroke-width="2.5" /><path d="M 450,200 Q 539.9902653561155,110.0 629.980530712231,80" fill="none" opacity="0.12" stroke="#ffb3ac" stroke-linecap="round" stroke-width="6" /><rect fill="#1e1e1e" height="68" rx="12" stroke="#ffb3ac" stroke-width="1.5" width="300" x="479.9805" y="49" /><circle cx="503.9805" cy="83" fill="#ffb3ac" r="14" /><text fill="white" font-family="Inter, sans-serif" font-size="12" font-weight="bold" text-anchor="middle" x="503.98053071223103" y="88">2</text><text fill="#e5e2e1" font-family="'Noto Sans JP', 'Inter', sans-serif" font-size="17" font-weight="bold" x="527.980530712231" y="73">き</text><text fill="#c6c5d4" font-family="Inter, sans-serif" font-size="11" x="527.980530712231" y="95">(ki)</text><text fill="#908f9d" font-family="'Noto Sans JP', Inter, sans-serif" font-size="12" x="547.980530712231" y="71">= き</text><text fill="#908f9d" font-family="Inter, sans-serif" font-size="9" x="547.980530712231" y="85">(ki)</text><path d="M 450,200 Q 590.0,170.0 730.0,200.0" fill="none" opacity="0.5" stroke="#ffb3ac" stroke-linecap="round" stroke-width="2.5" /><path d="M 450,200 Q 590.0,170.0 730.0,200.0" fill="none" opacity="0.12" stroke="#ffb3ac" stroke-linecap="round" stroke-width="6" /><rect fill="#1e1e1e" height="68" rx="12" stroke="#ffb3ac" stroke-width="1.5" width="300" x="580.0" y="169.0" /><circle cx="604.0" cy="203.0" fill="#ffb3ac" r="14" /><text fill="white" font-family="Inter, sans-serif" font-size="12" font-weight="bold" text-anchor="middle" x="604.0" y="208.0">3</text><text fill="#e5e2e1" font-family="'Noto Sans JP', 'Inter', sans-serif" font-size="17" font-weight="bold" x="628.0" y="193.0">く</text><text fill="#c6c5d4" font-family="Inter, sans-serif" font-size="11" x="628.0" y="215.0">(ku)</text><text fill="#908f9d" font-family="'Noto Sans JP', Inter, sans-serif" font-size="12" x="648.0" y="191.0">= くも</text><text fill="#908f9d" font-family="Inter, sans-serif" font-size="9" x="648.0" y="205.0">(kumo)</text><path d="M 450,200 Q 539.9902653561155,246.6044443118978 629.980530712231,353.2088886237956" fill="none" opacity="0.5" stroke="#ffb3ac" stroke-linecap="round" stroke-width="2.5" /><path d="M 450,200 Q 539.9902653561155,246.6044443118978 629.980530712231,353.2088886237956" fill="none" opacity="0.12" stroke="#ffb3ac" stroke-linecap="round" stroke-width="6" /><rect fill="#1e1e1e" height="68" rx="12" stroke="#ffb3ac" stroke-width="1.5" width="300" x="479.9805" y="322.2089" /><circle cx="503.9805" cy="356.2089" fill="#ffb3ac" r="14" /><text fill="white" font-family="Inter, sans-serif" font-size="12" font-weight="bold" text-anchor="middle" x="503.98053071223103" y="361.2088886237956">4</text><text fill="#e5e2e1" font-family="'Noto Sans JP', 'Inter', sans-serif" font-size="17" font-weight="bold" x="527.980530712231" y="346.2088886237956">け</text><text fill="#c6c5d4" font-family="Inter, sans-serif" font-size="11" x="527.980530712231" y="368.2088886237956">(ke)</text><text fill="#908f9d" font-family="'Noto Sans JP', Inter, sans-serif" font-size="12" x="547.980530712231" y="344.2088886237956">= けいさつ</text><text fill="#908f9d" font-family="Inter, sans-serif" font-size="9" x="547.980530712231" y="358.2088886237956">(keisatsu)</text><path d="M 450,200 Q 425.68925512662975,268.4807753012208 401.3785102532595,396.9615506024416" fill="none" opacity="0.5" stroke="#ffb3ac" stroke-linecap="round" stroke-width="2.5" /><path d="M 450,200 Q 425.68925512662975,268.4807753012208 401.3785102532595,396.9615506024416" fill="none" opacity="0.12" stroke="#ffb3ac" stroke-linecap="round" stroke-width="6" /><rect fill="#1e1e1e" height="68" rx="12" stroke="#ffb3ac" stroke-width="1.5" width="300" x="251.3785" y="365.9616" /><circle cx="275.3785" cy="399.9616" fill="#ffb3ac" r="14" /><text fill="white" font-family="Inter, sans-serif" font-size="12" font-weight="bold" text-anchor="middle" x="275.3785102532595" y="404.9615506024416">5</text><text fill="#e5e2e1" font-family="'Noto Sans JP', 'Inter', sans-serif" font-size="17" font-weight="bold" x="299.3785102532595" y="389.9615506024416">こ</text><text fill="#c6c5d4" font-family="Inter, sans-serif" font-size="11" x="299.3785102532595" y="411.9615506024416">(ko)</text><text fill="#908f9d" font-family="'Noto Sans JP', Inter, sans-serif" font-size="12" x="319.3785102532595" y="387.9615506024416">= こども</text><text fill="#908f9d" font-family="Inter, sans-serif" font-size="9" x="319.3785102532595" y="401.9615506024416">(kodomo)</text><rect fill="#202020" height="56" rx="10" stroke="#353534" stroke-width="1.5" width="780" x="60" y="446.9616" /><text fill="#c6c5d4" font-family="Inter, sans-serif" font-size="11" font-weight="bold" x="74" y="466.9615506024416">💡 CONSEJO:</text><text fill="#c6c5d4" font-family="Inter, sans-serif" font-size="10" text-anchor="start" x="74" y="484.9615506024416">Los sonidos KA, KI, KU, KE, KO son la base de muchas palabras.</text><line stroke="#e2e2e2" stroke-width="1" x1="100" x2="800" y1="516.9616" y2="516.9616" /><text fill="#908f9d" font-family="Inter, sans-serif" font-size="11" text-anchor="middle" x="450" y="530.9615506024415">Hiragana: Fila KA (かきくけこ)</text></svg>