<?xml version="1.0" encoding="utf-8" ?>
<svg baseProfile="tiny" height="700" version="1.2" width="900" xmlns="http://www.w3.org/2000/svg" xmlns:ev="http://www.w3.org/2001/xml-events" xmlns:xlink="http://www.w3.org/1999/xlink"><defs><linearGradient id="paper-grad" x1="0%" x2="100%" y1="0%" y2="100%"><stop offset="0.0" stop-color="#1a1a1a" /><stop offset="1.0" stop-color="#1e1e1e" /></linearGradient></defs><rect fill="url(#paper-grad)" height="100%" rx="16" width="100%" x="0" y="0" /><rect fill="none" height="100%" rx="16" stroke="#2a2a2a" stroke-width="1.5" width="100%" x="0" y="0" /><g opacity="0.35"><circle cx="70.0" cy="50.4" fill="#ffd5de" r="6.4" /><circle cx="79.1301" cy="57.0334" fill="#ffd5de" r="6.4" /><circle cx="75.6427" cy="67.7666" fill="#ffd5de" r="6.4" /><circle cx="64.3573" cy="67.7666" fill="#ffd5de" r="6.4" /><circle cx="60.8699" cy="57.0334" fill="#ffd5de" r="6.4" /><circle cx="70" cy="60" fill="#ffb7c5" r="3.2" /></g><g opacity="0.35"><circle cx="830.0" cy="50.4" fill="#ffd5de" r="6.4" /><circle cx="839.1301" cy="57.0334" fill="#ffd5de" r="6.4" /><circle cx="835.6427" cy="67.7666" fill="#ffd5de" r="6.4" /><circle cx="824.3573" cy="67.7666" fill="#ffd5de" r="6.4" /><circle cx="820.8699" cy="57.0334" fill="#ffd5de" r="6.4" /><circle cx="830" cy="60" fill="#ffb7c5" r="3.2" /></g><g opacity="0.25"><circle cx="60" cy="610" fill="#eeeeee" r="22" /><polygon fill="#eeeeee" points="46.8,614.4 40.2,599.0 53.4,607.8" /><polygon fill="#eeeeee" points="73.2,614.4 79.8,599.0 66.6,607.8" /><line stroke="#c4c7c7" stroke-width="1" x1="55.6" x2="58.9" y1="610" y2="612.2" /><line stroke="#c4c7c7" stroke-width="1" x1="64.4" x2="61.1" y1="610" y2="612.2" /><line stroke="#c4c7c7" stroke-width="1" x1="56.7" x2="63.3" y1="614.4" y2="614.4" /></g><polygon fill="#c4c7c7" opacity="0.4" points="820.0,596.0 823.703,604.9032 833.3148,605.6738 825.9917,611.9468 828.229,621.3262 820.0,616.3 811.771,621.3262 814.0083,611.9468 806.6852,605.6738 816.297,604.9032" /><g fill="#d4d7d7" opacity="0.2"><circle cx="760" cy="80" r="12.5" /><circle cx="750.0" cy="82.5" r="8.75" /><circle cx="770.0" cy="82.5" r="8.75" /><circle cx="762.5" cy="76.25" r="7.5" /></g><circle cx="450" cy="120" fill="#ffb3ac" opacity="0.12" r="74" stroke="none" stroke-width="0" /><circle cx="450" cy="120" fill="#201515" r="70" stroke="#ffb3ac" stroke-width="3" /><circle cx="450" cy="120" fill="#1e1e1e" r="62" stroke="#ffb3ac" stroke-opacity="0.5" stroke-width="1" /><text fill="#e5e2e1" font-family="'Noto Sans JP', 'Inter', sans-serif" font-size="25" font-weight="bold" text-anchor="middle" x="450" y="113.0">Saludos</text><text fill="#e5e2e1" font-family="'Noto Sans JP', 'Inter', sans-serif" font-size="25" font-weight="bold" text-anchor="middle" x="450" y="141.0">Básicos</text><text fill="#c6c5d4" font-family="Inter, sans-serif" font-size="12" text-anchor="middle" x="450" y="156">Expresiones</text><text fill="#908f9d" font-family="Inter, sans-serif" font-size="9" text-anchor="middle" x="450" y="174">Expresiones: Saludo…</text><rect fill="#1e1e1e" height="88" rx="12" stroke="#ffb3ac" stroke-width="1.5" width="260" x="37.5" y="195" /><circle cx="57.5" cy="239" fill="#ffb3ac" r="12" /><text fill="white" font-family="Inter, sans-serif" font-size="10" font-weight="bold" text-anchor="middle" x="57.5" y="244">1</text><text fill="#e5e2e1" font-family="'Noto Sans JP', 'Inter', sans-serif" font-size="15" font-weight="bold" text-anchor="start" x="77.5" y="219">おはようございます</text><text fill="#c6c5d4" font-family="'Noto Sans JP', Inter, sans-serif" font-size="10" x="49.5" y="247">おはようございます</text><text fill="#908f9d" font-family="Inter, sans-serif" font-size="8" x="49.5" y="261">ohayougozaimasu</text><text fill="#ffb3ac" font-family="Inter, sans-serif" font-size="11" font-weight="bold" x="49.5" y="275">Buenos días</text><rect fill="#1e1e1e" height="88" rx="12" stroke="#ffb3ac" stroke-width="1.5" width="260" x="312.5" y="195" /><circle cx="332.5" cy="239" fill="#ffb3ac" r="12" /><text fill="white" font-family="Inter, sans-serif" font-size="10" font-weight="bold" text-anchor="middle" x="332.5" y="244">2</text><text fill="#e5e2e1" font-family="'Noto Sans JP', 'Inter', sans-serif" font-size="15" font-weight="bold" text-anchor="start" x="352.5" y="219">こんにちは</text><text fill="#c6c5d4" font-family="'Noto Sans JP', Inter, sans-serif" font-size="10" x="324.5" y="247">こんにちは</text><text fill="#908f9d" font-family="Inter, sans-serif" font-size="8" x="324.5" y="261">konnichiha</text><text fill="#ffb3ac" font-family="Inter, sans-serif" font-size="11" font-weight="bold" x="324.5" y="275">Buenas tardes / Hola</text><rect fill="#1e1e1e" height="88" rx="12" stroke="#ffb3ac" stroke-width="1.5" width="260" x="587.5" y="195" /><circle cx="607.5" cy="239" fill="#ffb3ac" r="12" /><text fill="white" font-family="Inter, sans-serif" font-size="10" font-weight="bold" text-anchor="middle" x="607.5" y="244">3</text><text fill="#e5e2e1" font-family="'Noto Sans JP', 'Inter', sans-serif" font-size="15" font-weight="bold" text-anchor="start" x="627.5" y="219">こんばんは</text><text fill="#c6c5d4" font-family="'Noto Sans JP', Inter, sans-serif" font-size="10" x="599.5" y="247">こんばんは</text><text fill="#908f9d" font-family="Inter, sans-serif" font-size="8" x="599.5" y="261">konbanha</text><text fill="#ffb3ac" font-family="Inter, sans-serif" font-size="11" font-weight="bold" x="599.5" y="275">Buenas noches</text><rect fill="#1e1e1e" height="88" rx="12" stroke="#ffb3ac" stroke-width="1.5" width="260" x="37.5" y="290" /><circle cx="57.5" cy="334" fill="#ffb3ac" r="12" /><text fill="white" font-family="Inter, sans-serif" font-size="10" font-weight="bold" text-anchor="middle" x="57.5" y="339">4</text><text fill="#e5e2e1" font-family="'Noto Sans JP', 'Inter', sans-serif" font-size="15" font-weight="bold" text-anchor="start" x="77.5" y="314">さようなら</text><text fill="#c6c5d4" font-family="'Noto Sans JP', Inter, sans-serif" font-size="10" x="49.5" y="342">さようなら</text><text fill="#908f9d" font-family="Inter, sans-serif" font-size="8" x="49.5" y="356">sayounara</text><text fill="#ffb3ac" font-family="Inter, sans-serif" font-size="11" font-weight="bold" x="49.5" y="370">Adiós</text><rect fill="#1e1e1e" height="88" rx="12" stroke="#ffb3ac" stroke-width="1.5" width="260" x="312.5" y="290" /><circle cx="332.5" cy="334" fill="#ffb3ac" r="12" /><text fill="white" font-family="Inter, sans-serif" font-size="10" font-weight="bold" text-anchor="middle" x="332.5" y="339">5</text><text fill="#e5e2e1" font-family="'Noto Sans JP', 'Inter', sans-serif" font-size="15" font-weight="bold" text-anchor="start" x="352.5" y="314">また明日</text><text fill="#c6c5d4" font-family="'Noto Sans JP', Inter, sans-serif" font-size="10" x="324.5" y="342">またあした</text><text fill="#908f9d" font-family="Inter, sans-serif" font-size="8" x="324.5" y="356">mataashita</text><text fill="#ffb3ac" font-family="Inter, sans-serif" font-size="11" font-weight="bold" x="324.5" y="370">Hasta mañana</text><rect fill="#1e1e1e" height="88" rx="12" stroke="#ffb3ac" stroke-width="1.5" width="260" x="587.5" y="290" /><circle cx="607.5" cy="334" fill="#ffb3ac" r="12" /><text fill="white" font-family="Inter, sans-serif" font-size="10" font-weight="bold" text-anchor="middle" x="607.5" y="339">6</text><text fill="#e5e2e1" font-family="'Noto Sans JP', 'Inter', sans-serif" font-size="15" font-weight="bold" text-anchor="start" x="627.5" y="314">じゃね</text><text fill="#c6c5d4" font-family="'Noto Sans JP', Inter, sans-serif" font-size="10" x="599.5" y="342">じゃね</text><text fill="#908f9d" font-family="Inter, sans-serif" font-size="8" x="599.5" y="356">jane</text><text fill="#ffb3ac" font-family="Inter, sans-serif" font-size="11" font-weight="bold" x="599.5" y="370">Nos vemos</text><rect fill="#1e1e1e" height="88" rx="12" stroke="#ffb3ac" stroke-width="1.5" width="260" x="37.5" y="385" /><circle cx="57.5" cy="429" fill="#ffb3ac" r="12" /><text fill="white" font-family="Inter, sans-serif" font-size="10" font-weight="bold" text-anchor="middle" x="57.5" y="434">7</text><text fill="#e5e2e1" font-family="'Noto Sans JP', 'Inter', sans-serif" font-size="15" font-weight="bold" text-anchor="start" x="77.5" y="409">お元気ですか</text><text fill="#c6c5d4" font-family="'Noto Sans JP', Inter, sans-serif" font-size="10" x="49.5" y="437">おげんきですか</text><text fill="#908f9d" font-family="Inter, sans-serif" font-size="8" x="49.5" y="451">ogenkidesuka</text><text fill="#ffb3ac" font-family="Inter, sans-serif" font-size="11" font-weight="bold" x="49.5" y="465">¿Cómo está(s)?</text><rect fill="#202020" height="56" rx="10" stroke="#353534" stroke-width="1.5" width="780" x="60" y="495" /><text fill="#c6c5d4" font-family="Inter, sans-serif" font-size="11" font-weight="bold" x="74" y="515">💡 CONSEJO:</text><text fill="#c6c5d4" font-family="Inter, sans-serif" font-size="10" text-anchor="start" x="74" y="533">Usa こんにちは hasta el atardecer, luego こんばんは.</text><line stroke="#e2e2e2" stroke-width="1" x1="100" x2="800" y1="580" y2="580" /><text fill="#908f9d" font-family="Inter, sans-serif" font-size="11" text-anchor="middle" x="450" y="594">Expresiones: Saludos Básicos</text></svg>