<?xml version="1.0" encoding="utf-8" ?>
<svg baseProfile="tiny" height="835" version="1.2" width="900" xmlns="http://www.w3.org/2000/svg" xmlns:ev="http://www.w3.org/2001/xml-events" xmlns:xlink="http://www.w3.org/1999/xlink"><defs><linearGradient id="paper-grad" x1="0%" x2="100%" y1="0%" y2="100%"><stop offset="0.0" stop-color="#1a1a1a" /><stop offset="1.0" stop-color="#1e1e1e" /></linearGradient></defs><rect fill="url(#paper-grad)" height="100%" rx="16" width="100%" x="0" y="0" /><rect fill="none" height="100%" rx="16" stroke="#2a2a2a" stroke-width="1.5" width="100%" x="0" y="0" /><g opacity="0.25"><line stroke="#d4d7d7" stroke-width="2" x1="780" x2="780.0" y1="80" y2="55.5" /><line stroke="#d4d7d7" stroke-width="2" x1="780" x2="797.3241" y1="80" y2="62.6759" /><line stroke="#d4d7d7" stroke-width="2" x1="780" x2="804.5" y1="80" y2="80.0" /><line stroke="#d4d7d7" stroke-width="2" x1="780" x2="797.3241" y1="80" y2="97.3241" /><line stroke="#d4d7d7" stroke-width="2" x1="780" x2="780.0" y1="80" y2="104.5" /><line stroke="#d4d7d7" stroke-width="2" x1="780" x2="762.6759" y1="80" y2="97.3241" /><line stroke="#d4d7d7" stroke-width="2" x1="780" x2="755.5" y1="80" y2="80.0" /><line stroke="#d4d7d7" stroke-width="2" x1="780" x2="762.6759" y1="80" y2="62.6759" /><circle cx="780" cy="80" fill="#e2e2e2" r="14.0" /></g><g opacity="0.18"><path d="M 100 630 L 70.0 595.0 L 82.5 595.0 L 100 580 L 117.5 595.0 L 130.0 595.0 Z" fill="#d4d7d7" /><path d="M 100 587.5 L 95.0 595.0 L 105.0 595.0 Z" fill="#eeeeee" /></g><polygon fill="#c4c7c7" opacity="0.4" points="50.0,108.0 53.174,115.6313 61.4127,116.2918 55.1357,121.6687 57.0534,129.7082 50.0,125.4 42.9466,129.7082 44.8643,121.6687 38.5873,116.2918 46.826,115.6313" /><polygon fill="#c4c7c7" opacity="0.4" points="830.0,636.0 833.703,644.9032 843.3148,645.6738 835.9917,651.9468 838.229,661.3262 830.0,656.3 821.771,661.3262 824.0083,651.9468 816.6852,645.6738 826.297,644.9032" /><circle cx="450.0" cy="175" fill="#bdc2ff" opacity="0.12" r="74" stroke="none" stroke-width="0" /><circle cx="450.0" cy="175" fill="#141420" r="70" stroke="#bdc2ff" stroke-width="3" /><circle cx="450.0" cy="175" fill="#1e1e1e" r="62" stroke="#bdc2ff" stroke-opacity="0.5" stroke-width="1" /><text fill="#e5e2e1" font-family="'Noto Sans JP', 'Inter', sans-serif" font-size="25" font-weight="bold" text-anchor="middle" x="450.0" y="183.0">漢字</text><text fill="#c6c5d4" font-family="Inter, sans-serif" font-size="12" text-anchor="middle" x="450.0" y="211">Números</text><text fill="#908f9d" font-family="Inter, sans-serif" font-size="9" text-anchor="middle" x="450.0" y="229">Kanji: Números (一〜十)</text><path d="M 450.0,175 Q 310.0,193.0 170.0,271" fill="none" opacity="0.5" stroke="#bdc2ff" stroke-linecap="round" stroke-width="2.5" /><path d="M 450.0,175 Q 310.0,193.0 170.0,271" fill="none" opacity="0.12" stroke="#bdc2ff" stroke-linecap="round" stroke-width="6" /><rect fill="#1e1e1e" height="72" rx="12" stroke="#bdc2ff" stroke-width="1.5" width="320" x="110.0" y="235" /><circle cx="132.0" cy="271" fill="#bdc2ff" r="13" /><text fill="white" font-family="Inter, sans-serif" font-size="11" font-weight="bold" text-anchor="middle" x="132.0" y="276">1</text><text fill="#e5e2e1" font-family="'Noto Sans JP', sans-serif" font-size="20" font-weight="bold" x="156.0" y="263">一</text><text fill="#c6c5d4" font-family="Inter, sans-serif" font-size="10" x="202.0" y="263">いち / ひと(つ)</text><text fill="#bdc2ff" font-family="Inter, sans-serif" font-size="12" font-weight="bold" x="156.0" y="287">uno</text><text fill="#908f9d" font-family="Inter, sans-serif" font-size="9" x="156.0" y="301">Radical: 一 · 1 trazos</text><path d="M 450.0,175 Q 480.0,193.0 510.0,271" fill="none" opacity="0.5" stroke="#bdc2ff" stroke-linecap="round" stroke-width="2.5" /><path d="M 450.0,175 Q 480.0,193.0 510.0,271" fill="none" opacity="0.12" stroke="#bdc2ff" stroke-linecap="round" stroke-width="6" /><rect fill="#1e1e1e" height="72" rx="12" stroke="#bdc2ff" stroke-width="1.5" width="320" x="450.0" y="235" /><circle cx="472.0" cy="271" fill="#bdc2ff" r="13" /><text fill="white" font-family="Inter, sans-serif" font-size="11" font-weight="bold" text-anchor="middle" x="472.0" y="276">2</text><text fill="#e5e2e1" font-family="'Noto Sans JP', sans-serif" font-size="20" font-weight="bold" x="496.0" y="263">二</text><text fill="#c6c5d4" font-family="Inter, sans-serif" font-size="10" x="542.0" y="263">に / ふた(つ)</text><text fill="#bdc2ff" font-family="Inter, sans-serif" font-size="12" font-weight="bold" x="496.0" y="287">dos</text><text fill="#908f9d" font-family="Inter, sans-serif" font-size="9" x="496.0" y="301">Radical: 二 · 2 trazos</text><path d="M 450.0,175 Q 310.0,233.0 170.0,351" fill="none" opacity="0.5" stroke="#bdc2ff" stroke-linecap="round" stroke-width="2.5" /><path d="M 450.0,175 Q 310.0,233.0 170.0,351" fill="none" opacity="0.12" stroke="#bdc2ff" stroke-linecap="round" stroke-width="6" /><rect fill="#1e1e1e" height="72" rx="12" stroke="#bdc2ff" stroke-width="1.5" width="320" x="110.0" y="315" /><circle cx="132.0" cy="351" fill="#bdc2ff" r="13" /><text fill="white" font-family="Inter, sans-serif" font-size="11" font-weight="bold" text-anchor="middle" x="132.0" y="356">3</text><text fill="#e5e2e1" font-family="'Noto Sans JP', sans-serif" font-size="20" font-weight="bold" x="156.0" y="343">三</text><text fill="#c6c5d4" font-family="Inter, sans-serif" font-size="10" x="202.0" y="343">さん / みっ(つ)</text><text fill="#bdc2ff" font-family="Inter, sans-serif" font-size="12" font-weight="bold" x="156.0" y="367">tres</text><text fill="#908f9d" font-family="Inter, sans-serif" font-size="9" x="156.0" y="381">Radical: 一 · 3 trazos</text><path d="M 450.0,175 Q 480.0,233.0 510.0,351" fill="none" opacity="0.5" stroke="#bdc2ff" stroke-linecap="round" stroke-width="2.5" /><path d="M 450.0,175 Q 480.0,233.0 510.0,351" fill="none" opacity="0.12" stroke="#bdc2ff" stroke-linecap="round" stroke-width="6" /><rect fill="#1e1e1e" height="72" rx="12" stroke="#bdc2ff" stroke-width="1.5" width="320" x="450.0" y="315" /><circle cx="472.0" cy="351" fill="#bdc2ff" r="13" /><text fill="white" font-family="Inter, sans-serif" font-size="11" font-weight="bold" text-anchor="middle" x="472.0" y="356">4</text><text fill="#e5e2e1" font-family="'Noto Sans JP', sans-serif" font-size="20" font-weight="bold" x="496.0" y="343">四</text><text fill="#c6c5d4" font-family="Inter, sans-serif" font-size="10" x="542.0" y="343">し/よん / よっ(つ)</text><text fill="#bdc2ff" font-family="Inter, sans-serif" font-size="12" font-weight="bold" x="496.0" y="367">cuatro</text><text fill="#908f9d" font-family="Inter, sans-serif" font-size="9" x="496.0" y="381">Radical: 口 · 5 trazos</text><path d="M 450.0,175 Q 310.0,273.0 170.0,431" fill="none" opacity="0.5" stroke="#bdc2ff" stroke-linecap="round" stroke-width="2.5" /><path d="M 450.0,175 Q 310.0,273.0 170.0,431" fill="none" opacity="0.12" stroke="#bdc2ff" stroke-linecap="round" stroke-width="6" /><rect fill="#1e1e1e" height="72" rx="12" stroke="#bdc2ff" stroke-width="1.5" width="320" x="110.0" y="395" /><circle cx="132.0" cy="431" fill="#bdc2ff" r="13" /><text fill="white" font-family="Inter, sans-serif" font-size="11" font-weight="bold" text-anchor="middle" x="132.0" y="436">5</text><text fill="#e5e2e1" font-family="'Noto Sans JP', sans-serif" font-size="20" font-weight="bold" x="156.0" y="423">五</text><text fill="#c6c5d4" font-family="Inter, sans-serif" font-size="10" x="202.0" y="423">ご / いつ(つ)</text><text fill="#bdc2ff" font-family="Inter, sans-serif" font-size="12" font-weight="bold" x="156.0" y="447">cinco</text><text fill="#908f9d" font-family="Inter, sans-serif" font-size="9" x="156.0" y="461">Radical: 二 · 4 trazos</text><path d="M 450.0,175 Q 480.0,273.0 510.0,431" fill="none" opacity="0.5" stroke="#bdc2ff" stroke-linecap="round" stroke-width="2.5" /><path d="M 450.0,175 Q 480.0,273.0 510.0,431" fill="none" opacity="0.12" stroke="#bdc2ff" stroke-linecap="round" stroke-width="6" /><rect fill="#1e1e1e" height="72" rx="12" stroke="#bdc2ff" stroke-width="1.5" width="320" x="450.0" y="395" /><circle cx="472.0" cy="431" fill="#bdc2ff" r="13" /><text fill="white" font-family="Inter, sans-serif" font-size="11" font-weight="bold" text-anchor="middle" x="472.0" y="436">6</text><text fill="#e5e2e1" font-family="'Noto Sans JP', sans-serif" font-size="20" font-weight="bold" x="496.0" y="423">六</text><text fill="#c6c5d4" font-family="Inter, sans-serif" font-size="10" x="542.0" y="423">ろく / むっ(つ)</text><text fill="#bdc2ff" font-family="Inter, sans-serif" font-size="12" font-weight="bold" x="496.0" y="447">seis</text><text fill="#908f9d" font-family="Inter, sans-serif" font-size="9" x="496.0" y="461">Radical: 八 · 4 trazos</text><path d="M 450.0,175 Q 310.0,313.0 170.0,511" fill="none" opacity="0.5" stroke="#bdc2ff" stroke-linecap="round" stroke-width="2.5" /><path d="M 450.0,175 Q 310.0,313.0 170.0,511" fill="none" opacity="0.12" stroke="#bdc2ff" stroke-linecap="round" stroke-width="6" /><rect fill="#1e1e1e" height="72" rx="12" stroke="#bdc2ff" stroke-width="1.5" width="320" x="110.0" y="475" /><circle cx="132.0" cy="511" fill="#bdc2ff" r="13" /><text fill="white" font-family="Inter, sans-serif" font-size="11" font-weight="bold" text-anchor="middle" x="132.0" y="516">7</text><text fill="#e5e2e1" font-family="'Noto Sans JP', sans-serif" font-size="20" font-weight="bold" x="156.0" y="503">七</text><text fill="#c6c5d4" font-family="Inter, sans-serif" font-size="10" x="202.0" y="503">しち/なな / なな(つ)</text><text fill="#bdc2ff" font-family="Inter, sans-serif" font-size="12" font-weight="bold" x="156.0" y="527">siete</text><text fill="#908f9d" font-family="Inter, sans-serif" font-size="9" x="156.0" y="541">Radical: 一 · 2 trazos</text><path d="M 450.0,175 Q 480.0,313.0 510.0,511" fill="none" opacity="0.5" stroke="#bdc2ff" stroke-linecap="round" stroke-width="2.5" /><path d="M 450.0,175 Q 480.0,313.0 510.0,511" fill="none" opacity="0.12" stroke="#bdc2ff" stroke-linecap="round" stroke-width="6" /><rect fill="#1e1e1e" height="72" rx="12" stroke="#bdc2ff" stroke-width="1.5" width="320" x="450.0" y="475" /><circle cx="472.0" cy="511" fill="#bdc2ff" r="13" /><text fill="white" font-family="Inter, sans-serif" font-size="11" font-weight="bold" text-anchor="middle" x="472.0" y="516">8</text><text fill="#e5e2e1" font-family="'Noto Sans JP', sans-serif" font-size="20" font-weight="bold" x="496.0" y="503">八</text><text fill="#c6c5d4" font-family="Inter, sans-serif" font-size="10" x="542.0" y="503">はち / やっ(つ)</text><text fill="#bdc2ff" font-family="Inter, sans-serif" font-size="12" font-weight="bold" x="496.0" y="527">ocho</text><text fill="#908f9d" font-family="Inter, sans-serif" font-size="9" x="496.0" y="541">Radical: 八 · 2 trazos</text><path d="M 450.0,175 Q 310.0,353.0 170.0,591" fill="none" opacity="0.5" stroke="#bdc2ff" stroke-linecap="round" stroke-width="2.5" /><path d="M 450.0,175 Q 310.0,353.0 170.0,591" fill="none" opacity="0.12" stroke="#bdc2ff" stroke-linecap="round" stroke-width="6" /><rect fill="#1e1e1e" height="72" rx="12" stroke="#bdc2ff" stroke-width="1.5" width="320" x="110.0" y="555" /><circle cx="132.0" cy="591" fill="#bdc2ff" r="13" /><text fill="white" font-family="Inter, sans-serif" font-size="11" font-weight="bold" text-anchor="middle" x="132.0" y="596">9</text><text fill="#e5e2e1" font-family="'Noto Sans JP', sans-serif" font-size="20" font-weight="bold" x="156.0" y="583">九</text><text fill="#c6c5d4" font-family="Inter, sans-serif" font-size="10" x="202.0" y="583">く/きゅう / ここの(つ)</text><text fill="#bdc2ff" font-family="Inter, sans-serif" font-size="12" font-weight="bold" x="156.0" y="607">nueve</text><text fill="#908f9d" font-family="Inter, sans-serif" font-size="9" x="156.0" y="621">Radical: 乙 · 2 trazos</text><path d="M 450.0,175 Q 480.0,353.0 510.0,591" fill="none" opacity="0.5" stroke="#bdc2ff" stroke-linecap="round" stroke-width="2.5" /><path d="M 450.0,175 Q 480.0,353.0 510.0,591" fill="none" opacity="0.12" stroke="#bdc2ff" stroke-linecap="round" stroke-width="6" /><rect fill="#1e1e1e" height="72" rx="12" stroke="#bdc2ff" stroke-width="1.5" width="320" x="450.0" y="555" /><circle cx="472.0" cy="591" fill="#bdc2ff" r="13" /><text fill="white" font-family="Inter, sans-serif" font-size="11" font-weight="bold" text-anchor="middle" x="472.0" y="596">10</text><text fill="#e5e2e1" font-family="'Noto Sans JP', sans-serif" font-size="20" font-weight="bold" x="496.0" y="583">十</text><text fill="#c6c5d4" font-family="Inter, sans-serif" font-size="10" x="542.0" y="583">じゅう / とお</text><text fill="#bdc2ff" font-family="Inter, sans-serif" font-size="12" font-weight="bold" x="496.0" y="607">diez</text><text fill="#908f9d" font-family="Inter, sans-serif" font-size="9" x="496.0" y="621">Radical: 十 · 2 trazos</text><rect fill="#202020" height="56" rx="10" stroke="#353534" stroke-width="1.5" width="780" x="60" y="660" /><text fill="#c6c5d4" font-family="Inter, sans-serif" font-size="11" font-weight="bold" x="74" y="680">💡 CONSEJO:</text><text fill="#c6c5d4" font-family="Inter, sans-serif" font-size="10" text-anchor="start" x="74" y="698">Aprende el orden de trazos: cada kanji tiene un orden específico.</text><line stroke="#e2e2e2" stroke-width="1" x1="100" x2="800" y1="805" y2="805" /><text fill="#908f9d" font-family="Inter, sans-serif" font-size="11" text-anchor="middle" x="450" y="819">Kanji: Números (一〜十)</text></svg>