<?xml version="1.0" encoding="utf-8" ?>
<svg baseProfile="tiny" height="700" version="1.2" width="900" xmlns="http://www.w3.org/2000/svg" xmlns:ev="http://www.w3.org/2001/xml-events" xmlns:xlink="http://www.w3.org/1999/xlink"><defs><linearGradient id="paper-grad" x1="0%" x2="100%" y1="0%" y2="100%"><stop offset="0.0" stop-color="#1a1a1a" /><stop offset="1.0" stop-color="#1e1e1e" /></linearGradient></defs><rect fill="url(#paper-grad)" height="100%" rx="16" width="100%" x="0" y="0" /><rect fill="none" height="100%" rx="16" stroke="#2a2a2a" stroke-width="1.5" width="100%" x="0" y="0" /><polygon fill="#c4c7c7" opacity="0.4" points="60.0,46.0 63.703,54.9032 73.3148,55.6738 65.9917,61.9468 68.229,71.3262 60.0,66.3 51.771,71.3262 54.0083,61.9468 46.6852,55.6738 56.297,54.9032" /><g fill="#d4d7d7" opacity="0.2"><circle cx="800" cy="50" r="14.0" /><circle cx="788.8" cy="52.8" r="9.8" /><circle cx="811.2" cy="52.8" r="9.8" /><circle cx="802.8" cy="45.8" r="8.4" /></g><polygon fill="#c4c7c7" opacity="0.4" points="830.0,616.0 833.703,624.9032 843.3148,625.6738 835.9917,631.9468 838.229,641.3262 830.0,636.3 821.771,641.3262 824.0083,631.9468 816.6852,625.6738 826.297,624.9032" /><g fill="#d4d7d7" opacity="0.2"><circle cx="100" cy="630" r="11.0" /><circle cx="91.2" cy="632.2" r="7.7" /><circle cx="108.8" cy="632.2" r="7.7" /><circle cx="102.2" cy="626.7" r="6.6" /></g><circle cx="220" cy="300" fill="#c5c0ff" opacity="0.12" r="74" stroke="none" stroke-width="0" /><circle cx="220" cy="300" fill="#15142a" r="70" stroke="#c5c0ff" stroke-width="3" /><circle cx="220" cy="300" fill="#1e1e1e" r="62" stroke="#c5c0ff" stroke-opacity="0.5" stroke-width="1" /><text fill="#e5e2e1" font-family="'Noto Sans JP', 'Inter', sans-serif" font-size="25" font-weight="bold" text-anchor="middle" x="220" y="293.0">Partícula</text><text fill="#e5e2e1" font-family="'Noto Sans JP', 'Inter', sans-serif" font-size="25" font-weight="bold" text-anchor="middle" x="220" y="321.0">は (wa)</text><text fill="#c6c5d4" font-family="Inter, sans-serif" font-size="12" text-anchor="middle" x="220" y="336">Sustantivo + は +…</text><path d="M 290,255.0 Q 335.0,172.5 380,150" fill="none" opacity="0.5" stroke="#c5c0ff" stroke-linecap="round" stroke-width="2.5" /><path d="M 290,255.0 Q 335.0,172.5 380,150" fill="none" opacity="0.12" stroke="#c5c0ff" stroke-linecap="round" stroke-width="6" /><rect fill="#1e1e1e" height="120" rx="12" stroke="#c5c0ff" stroke-width="1.5" width="480" x="380" y="100" /><text fill="#e5e2e1" font-family="'Noto Sans JP', 'Inter', sans-serif" font-size="18" font-weight="bold" text-anchor="start" x="396" y="127">私は学生です</text><text fill="#c6c5d4" font-family="'Noto Sans JP', Inter, sans-serif" font-size="11" x="396" y="158">わたしはがくせいです</text><text fill="#908f9d" font-family="Inter, sans-serif" font-size="9" x="396" y="172">watashihagakuseidesu</text><text fill="#c5c0ff" font-family="Inter, sans-serif" font-size="13" font-weight="bold" text-anchor="start" x="396" y="190">Yo soy estudiante</text><path d="M 290,285.0 Q 335.0,260.0 380,295" fill="none" opacity="0.5" stroke="#c5c0ff" stroke-linecap="round" stroke-width="2.5" /><path d="M 290,285.0 Q 335.0,260.0 380,295" fill="none" opacity="0.12" stroke="#c5c0ff" stroke-linecap="round" stroke-width="6" /><rect fill="#1e1e1e" height="120" rx="12" stroke="#c5c0ff" stroke-width="1.5" width="480" x="380" y="245" /><text fill="#e5e2e1" font-family="'Noto Sans JP', 'Inter', sans-serif" font-size="18" font-weight="bold" text-anchor="start" x="396" y="272">今日は暑いです</text><text fill="#c6c5d4" font-family="'Noto Sans JP', Inter, sans-serif" font-size="11" x="396" y="303">きょうはあついです</text><text fill="#908f9d" font-family="Inter, sans-serif" font-size="9" x="396" y="317">kyouhaatsuidesu</text><text fill="#c5c0ff" font-family="Inter, sans-serif" font-size="13" font-weight="bold" text-anchor="start" x="396" y="335">Hoy hace calor</text><rect fill="#202020" height="56" rx="10" stroke="#353534" stroke-width="1.5" width="780" x="60" y="410" /><text fill="#c6c5d4" font-family="Inter, sans-serif" font-size="11" font-weight="bold" x="74" y="430">💡 CONSEJO:</text><text fill="#c6c5d4" font-family="Inter, sans-serif" font-size="10" text-anchor="start" x="74" y="448">Indica de qué se está hablando</text><line stroke="#e2e2e2" stroke-width="1" x1="100" x2="800" y1="490" y2="490" /><text fill="#908f9d" font-family="Inter, sans-serif" font-size="11" text-anchor="middle" x="450" y="504">Gramática: Partícula は (wa)</text></svg>