<?xml version="1.0" encoding="utf-8" ?>
<svg baseProfile="tiny" height="730" version="1.2" width="900" xmlns="http://www.w3.org/2000/svg" xmlns:ev="http://www.w3.org/2001/xml-events" xmlns:xlink="http://www.w3.org/1999/xlink"><defs><linearGradient id="paper-grad" x1="0%" x2="100%" y1="0%" y2="100%"><stop offset="0.0" stop-color="#1a1a1a" /><stop offset="1.0" stop-color="#1e1e1e" /></linearGradient></defs><rect fill="url(#paper-grad)" height="100%" rx="16" width="100%" x="0" y="0" /><rect fill="none" height="100%" rx="16" stroke="#2a2a2a" stroke-width="1.5" width="100%" x="0" y="0" /><g opacity="0.25"><circle cx="80" cy="620" fill="#eeeeee" r="20" /><polygon fill="#eeeeee" points="68.0,624.0 62.0,610.0 74.0,618.0" /><polygon fill="#eeeeee" points="92.0,624.0 98.0,610.0 86.0,618.0" /><line stroke="#c4c7c7" stroke-width="1" x1="76.0" x2="79.0" y1="620" y2="622.0" /><line stroke="#c4c7c7" stroke-width="1" x1="84.0" x2="81.0" y1="620" y2="622.0" /><line stroke="#c4c7c7" stroke-width="1" x1="77.0" x2="83.0" y1="624.0" y2="624.0" /></g><polygon fill="#c4c7c7" opacity="0.4" points="100.0,46.0 103.703,54.9032 113.3148,55.6738 105.9917,61.9468 108.229,71.3262 100.0,66.3 91.771,71.3262 94.0083,61.9468 86.6852,55.6738 96.297,54.9032" /><polygon fill="#c4c7c7" opacity="0.4" points="800.0,46.0 803.703,54.9032 813.3148,55.6738 805.9917,61.9468 808.229,71.3262 800.0,66.3 791.771,71.3262 794.0083,61.9468 786.6852,55.6738 796.297,54.9032" /><polygon fill="#c4c7c7" opacity="0.4" points="50.0,340.0 52.645,346.3594 59.5106,346.9098 54.2798,351.3906 55.8779,358.0902 50.0,354.5 44.1221,358.0902 45.7202,351.3906 40.4894,346.9098 47.355,346.3594" /><polygon fill="#c4c7c7" opacity="0.4" points="840.0,340.0 842.645,346.3594 849.5106,346.9098 844.2798,351.3906 845.8779,358.0902 840.0,354.5 834.1221,358.0902 835.7202,351.3906 830.4894,346.9098 837.355,346.3594" /><g opacity="0.25"><line stroke="#d4d7d7" stroke-width="2" x1="820" x2="820.0" y1="620" y2="602.5" /><line stroke="#d4d7d7" stroke-width="2" x1="820" x2="832.3744" y1="620" y2="607.6256" /><line stroke="#d4d7d7" stroke-width="2" x1="820" x2="837.5" y1="620" y2="620.0" /><line stroke="#d4d7d7" stroke-width="2" x1="820" x2="832.3744" y1="620" y2="632.3744" /><line stroke="#d4d7d7" stroke-width="2" x1="820" x2="820.0" y1="620" y2="637.5" /><line stroke="#d4d7d7" stroke-width="2" x1="820" x2="807.6256" y1="620" y2="632.3744" /><line stroke="#d4d7d7" stroke-width="2" x1="820" x2="802.5" y1="620" y2="620.0" /><line stroke="#d4d7d7" stroke-width="2" x1="820" x2="807.6256" y1="620" y2="607.6256" /><circle cx="820" cy="620" fill="#e2e2e2" r="10.0" /></g><circle cx="450" cy="130" fill="#4cd6ff" opacity="0.12" r="74" stroke="none" stroke-width="0" /><circle cx="450" cy="130" fill="#0d2025" r="70" stroke="#4cd6ff" stroke-width="3" /><circle cx="450" cy="130" fill="#1e1e1e" r="62" stroke="#4cd6ff" stroke-opacity="0.5" stroke-width="1" /><text fill="#e5e2e1" font-family="'Noto Sans JP', 'Inter', sans-serif" font-size="25" font-weight="bold" text-anchor="middle" x="450" y="138.0">Colores</text><text fill="#c6c5d4" font-family="Inter, sans-serif" font-size="12" text-anchor="middle" x="450" y="166">Vocabulario</text><text fill="#908f9d" font-family="Inter, sans-serif" font-size="9" text-anchor="middle" x="450" y="184">Vocabulario: Colores</text><rect fill="#1e1e1e" height="78" rx="12" stroke="#4cd6ff" stroke-width="1.5" width="340" x="80.0" y="210" /><circle cx="102.0" cy="249" fill="#4cd6ff" r="13" /><text fill="white" font-family="Inter, sans-serif" font-size="11" font-weight="bold" text-anchor="middle" x="102.0" y="254">1</text><text fill="#e5e2e1" font-family="'Noto Sans JP', 'Inter', sans-serif" font-size="17" font-weight="bold" x="126.0" y="236">赤</text><text fill="#c6c5d4" font-family="'Noto Sans JP', Inter, sans-serif" font-size="11" x="126.0" y="256">あか</text><text fill="#908f9d" font-family="Inter, sans-serif" font-size="9" x="126.0" y="270">aka</text><text fill="#c6c5d4" font-family="Inter, sans-serif" font-size="12" text-anchor="start" x="280.0" y="234">rojo</text><text fill="#908f9d" font-family="'Noto Sans JP', Inter, sans-serif" font-size="9" x="280.0" y="260">赤い花 (あかいはな, flor roja)</text><rect fill="#1e1e1e" height="78" rx="12" stroke="#4cd6ff" stroke-width="1.5" width="340" x="450.0" y="210" /><circle cx="472.0" cy="249" fill="#4cd6ff" r="13" /><text fill="white" font-family="Inter, sans-serif" font-size="11" font-weight="bold" text-anchor="middle" x="472.0" y="254">2</text><text fill="#e5e2e1" font-family="'Noto Sans JP', 'Inter', sans-serif" font-size="17" font-weight="bold" x="496.0" y="236">青</text><text fill="#c6c5d4" font-family="'Noto Sans JP', Inter, sans-serif" font-size="11" x="496.0" y="256">あお</text><text fill="#908f9d" font-family="Inter, sans-serif" font-size="9" x="496.0" y="270">ao</text><text fill="#c6c5d4" font-family="Inter, sans-serif" font-size="12" text-anchor="start" x="650.0" y="234">azul/verde</text><text fill="#908f9d" font-family="'Noto Sans JP', Inter, sans-serif" font-size="9" x="650.0" y="260">青い空 (あおいそら, cielo azul)</text><rect fill="#1e1e1e" height="78" rx="12" stroke="#4cd6ff" stroke-width="1.5" width="340" x="80.0" y="290" /><circle cx="102.0" cy="329" fill="#4cd6ff" r="13" /><text fill="white" font-family="Inter, sans-serif" font-size="11" font-weight="bold" text-anchor="middle" x="102.0" y="334">3</text><text fill="#e5e2e1" font-family="'Noto Sans JP', 'Inter', sans-serif" font-size="17" font-weight="bold" x="126.0" y="316">黄色</text><text fill="#c6c5d4" font-family="'Noto Sans JP', Inter, sans-serif" font-size="11" x="126.0" y="336">きいろ</text><text fill="#908f9d" font-family="Inter, sans-serif" font-size="9" x="126.0" y="350">kiiro</text><text fill="#c6c5d4" font-family="Inter, sans-serif" font-size="12" text-anchor="start" x="280.0" y="314">amarillo</text><text fill="#908f9d" font-family="'Noto Sans JP', Inter, sans-serif" font-size="9" x="280.0" y="340">黄色い鳥 (きいりとり, pájaro amarillo)</text><rect fill="#1e1e1e" height="78" rx="12" stroke="#4cd6ff" stroke-width="1.5" width="340" x="450.0" y="290" /><circle cx="472.0" cy="329" fill="#4cd6ff" r="13" /><text fill="white" font-family="Inter, sans-serif" font-size="11" font-weight="bold" text-anchor="middle" x="472.0" y="334">4</text><text fill="#e5e2e1" font-family="'Noto Sans JP', 'Inter', sans-serif" font-size="17" font-weight="bold" x="496.0" y="316">白</text><text fill="#c6c5d4" font-family="'Noto Sans JP', Inter, sans-serif" font-size="11" x="496.0" y="336">しろ</text><text fill="#908f9d" font-family="Inter, sans-serif" font-size="9" x="496.0" y="350">shiro</text><text fill="#c6c5d4" font-family="Inter, sans-serif" font-size="12" text-anchor="start" x="650.0" y="314">blanco</text><text fill="#908f9d" font-family="'Noto Sans JP', Inter, sans-serif" font-size="9" x="650.0" y="340">白い雪 (しろいゆき, nieve blanca)</text><rect fill="#1e1e1e" height="78" rx="12" stroke="#4cd6ff" stroke-width="1.5" width="340" x="80.0" y="370" /><circle cx="102.0" cy="409" fill="#4cd6ff" r="13" /><text fill="white" font-family="Inter, sans-serif" font-size="11" font-weight="bold" text-anchor="middle" x="102.0" y="414">5</text><text fill="#e5e2e1" font-family="'Noto Sans JP', 'Inter', sans-serif" font-size="17" font-weight="bold" x="126.0" y="396">黒</text><text fill="#c6c5d4" font-family="'Noto Sans JP', Inter, sans-serif" font-size="11" x="126.0" y="416">くろ</text><text fill="#908f9d" font-family="Inter, sans-serif" font-size="9" x="126.0" y="430">kuro</text><text fill="#c6c5d4" font-family="Inter, sans-serif" font-size="12" text-anchor="start" x="280.0" y="394">negro</text><text fill="#908f9d" font-family="'Noto Sans JP', Inter, sans-serif" font-size="9" x="280.0" y="420">黒い猫 (くろいねこ, gato negro)</text><rect fill="#1e1e1e" height="78" rx="12" stroke="#4cd6ff" stroke-width="1.5" width="340" x="450.0" y="370" /><circle cx="472.0" cy="409" fill="#4cd6ff" r="13" /><text fill="white" font-family="Inter, sans-serif" font-size="11" font-weight="bold" text-anchor="middle" x="472.0" y="414">6</text><text fill="#e5e2e1" font-family="'Noto Sans JP', 'Inter', sans-serif" font-size="17" font-weight="bold" x="496.0" y="396">緑</text><text fill="#c6c5d4" font-family="'Noto Sans JP', Inter, sans-serif" font-size="11" x="496.0" y="416">みどり</text><text fill="#908f9d" font-family="Inter, sans-serif" font-size="9" x="496.0" y="430">midori</text><text fill="#c6c5d4" font-family="Inter, sans-serif" font-size="12" text-anchor="start" x="650.0" y="394">verde</text><text fill="#908f9d" font-family="'Noto Sans JP', Inter, sans-serif" font-size="9" x="650.0" y="420">緑の葉 (みどりのは, hoja verde)</text><rect fill="#1e1e1e" height="78" rx="12" stroke="#4cd6ff" stroke-width="1.5" width="340" x="80.0" y="450" /><circle cx="102.0" cy="489" fill="#4cd6ff" r="13" /><text fill="white" font-family="Inter, sans-serif" font-size="11" font-weight="bold" text-anchor="middle" x="102.0" y="494">7</text><text fill="#e5e2e1" font-family="'Noto Sans JP', 'Inter', sans-serif" font-size="17" font-weight="bold" x="126.0" y="476">紫</text><text fill="#c6c5d4" font-family="'Noto Sans JP', Inter, sans-serif" font-size="11" x="126.0" y="496">むらさき</text><text fill="#908f9d" font-family="Inter, sans-serif" font-size="9" x="126.0" y="510">murasaki</text><text fill="#c6c5d4" font-family="Inter, sans-serif" font-size="12" text-anchor="start" x="280.0" y="474">púrpura</text><text fill="#908f9d" font-family="'Noto Sans JP', Inter, sans-serif" font-size="9" x="280.0" y="500">紫の花 (むらさきのはな, flor púrpura)</text><rect fill="#1e1e1e" height="78" rx="12" stroke="#4cd6ff" stroke-width="1.5" width="340" x="450.0" y="450" /><circle cx="472.0" cy="489" fill="#4cd6ff" r="13" /><text fill="white" font-family="Inter, sans-serif" font-size="11" font-weight="bold" text-anchor="middle" x="472.0" y="494">8</text><text fill="#e5e2e1" font-family="'Noto Sans JP', 'Inter', sans-serif" font-size="17" font-weight="bold" x="496.0" y="476">茶色</text><text fill="#c6c5d4" font-family="'Noto Sans JP', Inter, sans-serif" font-size="11" x="496.0" y="496">ちゃいろ</text><text fill="#908f9d" font-family="Inter, sans-serif" font-size="9" x="496.0" y="510">chairo</text><text fill="#c6c5d4" font-family="Inter, sans-serif" font-size="12" text-anchor="start" x="650.0" y="474">marrón</text><text fill="#908f9d" font-family="'Noto Sans JP', Inter, sans-serif" font-size="9" x="650.0" y="500">茶色の机 (ちゃいろのつくえ, escritorio marrón)</text><rect fill="#1e1e1e" height="78" rx="12" stroke="#4cd6ff" stroke-width="1.5" width="340" x="80.0" y="530" /><circle cx="102.0" cy="569" fill="#4cd6ff" r="13" /><text fill="white" font-family="Inter, sans-serif" font-size="11" font-weight="bold" text-anchor="middle" x="102.0" y="574">9</text><text fill="#e5e2e1" font-family="'Noto Sans JP', 'Inter', sans-serif" font-size="17" font-weight="bold" x="126.0" y="556">ピンク</text><text fill="#c6c5d4" font-family="'Noto Sans JP', Inter, sans-serif" font-size="11" x="126.0" y="576">ピンク</text><text fill="#c6c5d4" font-family="Inter, sans-serif" font-size="12" text-anchor="start" x="280.0" y="554">rosa</text><text fill="#908f9d" font-family="'Noto Sans JP', Inter, sans-serif" font-size="9" x="280.0" y="580">ピンクの服 (ピンクのふく, ropa rosa)</text><rect fill="#1e1e1e" height="78" rx="12" stroke="#4cd6ff" stroke-width="1.5" width="340" x="450.0" y="530" /><circle cx="472.0" cy="569" fill="#4cd6ff" r="13" /><text fill="white" font-family="Inter, sans-serif" font-size="11" font-weight="bold" text-anchor="middle" x="472.0" y="574">10</text><text fill="#e5e2e1" font-family="'Noto Sans JP', 'Inter', sans-serif" font-size="17" font-weight="bold" x="496.0" y="556">オレンジ</text><text fill="#c6c5d4" font-family="'Noto Sans JP', Inter, sans-serif" font-size="11" x="496.0" y="576">オレンジ</text><text fill="#c6c5d4" font-family="Inter, sans-serif" font-size="12" text-anchor="start" x="650.0" y="554">naranja</text><text fill="#908f9d" font-family="'Noto Sans JP', Inter, sans-serif" font-size="9" x="650.0" y="580">オレンジのジュース (jugo de naranja)</text><rect fill="#202020" height="56" rx="10" stroke="#353534" stroke-width="1.5" width="780" x="60" y="630" /><text fill="#c6c5d4" font-family="Inter, sans-serif" font-size="11" font-weight="bold" x="74" y="650">💡 CONSEJO:</text><text fill="#c6c5d4" font-family="Inter, sans-serif" font-size="10" text-anchor="start" x="74" y="668">Usa 色 (iro) para preguntar colores: 何色？(naniiro?)</text><line stroke="#e2e2e2" stroke-width="1" x1="100" x2="800" y1="715" y2="715" /><text fill="#908f9d" font-family="Inter, sans-serif" font-size="11" text-anchor="middle" x="450" y="729">Vocabulario: Colores</text></svg>