<?xml version="1.0" encoding="utf-8" ?>
<svg baseProfile="tiny" height="700" version="1.2" width="900" xmlns="http://www.w3.org/2000/svg" xmlns:ev="http://www.w3.org/2001/xml-events" xmlns:xlink="http://www.w3.org/1999/xlink"><defs><linearGradient id="paper-grad" x1="0%" x2="100%" y1="0%" y2="100%"><stop offset="0.0" stop-color="#1a1a1a" /><stop offset="1.0" stop-color="#1e1e1e" /></linearGradient></defs><rect fill="url(#paper-grad)" height="100%" rx="16" width="100%" x="0" y="0" /><rect fill="none" height="100%" rx="16" stroke="#2a2a2a" stroke-width="1.5" width="100%" x="0" y="0" /><g opacity="0.35"><circle cx="60.0" cy="39.2" fill="#ffd5de" r="7.2" /><circle cx="70.2714" cy="46.6626" fill="#ffd5de" r="7.2" /><circle cx="66.3481" cy="58.7374" fill="#ffd5de" r="7.2" /><circle cx="53.6519" cy="58.7374" fill="#ffd5de" r="7.2" /><circle cx="49.7286" cy="46.6626" fill="#ffd5de" r="7.2" /><circle cx="60" cy="50" fill="#ffb7c5" r="3.6" /></g><g opacity="0.35"><circle cx="130.0" cy="61.6" fill="#ffd5de" r="5.6" /><circle cx="137.9889" cy="67.4043" fill="#ffd5de" r="5.6" /><circle cx="134.9374" cy="76.7957" fill="#ffd5de" r="5.6" /><circle cx="125.0626" cy="76.7957" fill="#ffd5de" r="5.6" /><circle cx="122.0111" cy="67.4043" fill="#ffd5de" r="5.6" /><circle cx="130" cy="70" fill="#ffb7c5" r="2.8" /></g><g fill="#d4d7d7" opacity="0.2"><circle cx="800" cy="60" r="15.0" /><circle cx="788.0" cy="63.0" r="10.5" /><circle cx="812.0" cy="63.0" r="10.5" /><circle cx="803.0" cy="55.5" r="9.0" /></g><g fill="#d4d7d7" opacity="0.2"><circle cx="720" cy="100" r="11.0" /><circle cx="711.2" cy="102.2" r="7.7" /><circle cx="728.8" cy="102.2" r="7.7" /><circle cx="722.2" cy="96.7" r="6.6" /></g><polygon fill="#c4c7c7" opacity="0.4" points="50.0,626.0 53.703,634.9032 63.3148,635.6738 55.9917,641.9468 58.229,651.3262 50.0,646.3 41.771,651.3262 44.0083,641.9468 36.6852,635.6738 46.297,634.9032" /><polygon fill="#c4c7c7" opacity="0.4" points="820.0,604.0 824.2321,614.1751 835.2169,615.0557 826.8476,622.2249 829.4046,632.9443 820.0,627.2 810.5954,632.9443 813.1524,622.2249 804.7831,615.0557 815.7679,614.1751" /><g opacity="0.35"><circle cx="830.0" cy="490.4" fill="#ffd5de" r="6.4" /><circle cx="839.1301" cy="497.0334" fill="#ffd5de" r="6.4" /><circle cx="835.6427" cy="507.7666" fill="#ffd5de" r="6.4" /><circle cx="824.3573" cy="507.7666" fill="#ffd5de" r="6.4" /><circle cx="820.8699" cy="497.0334" fill="#ffd5de" r="6.4" /><circle cx="830" cy="500" fill="#ffb7c5" r="3.2" /></g><rect fill="#202020" height="56" rx="10" stroke="#353534" stroke-width="1.5" width="780" x="60" y="195" /><text fill="#c6c5d4" font-family="Inter, sans-serif" font-size="11" font-weight="bold" x="74" y="215">💡 CONSEJO:</text><text fill="#c6c5d4" font-family="Inter, sans-serif" font-size="10" text-anchor="start" x="74" y="233">Revisa cada día lo aprendido para fijar el conocimiento a largo plazo.</text><line stroke="#e2e2e2" stroke-width="1" x1="100" x2="800" y1="275" y2="275" /><text fill="#908f9d" font-family="Inter, sans-serif" font-size="11" text-anchor="middle" x="450" y="289">Repaso: Hiragana Completo</text></svg>